<svg width="17" height="12" viewBox="0 0 17 12" fill="none" xmlns="http://www.w3.org/2000/svg">
<path d="M12.0545 1.02294C11.8314 0.799725 11.4696 0.799634 11.2464 1.02274C11.0232 1.24584 11.0231 1.60764 11.2462 1.83086L14.8439 5.43039H1.36464C1.04905 5.43039 0.793213 5.68622 0.793213 6.00181C0.793213 6.31741 1.04905 6.57324 1.36464 6.57324H14.8413L11.2462 10.1692C11.0231 10.3924 11.0232 10.7542 11.2463 10.9773C11.4695 11.2004 11.8313 11.2004 12.0545 10.9772L16.6032 6.42733C16.7198 6.32271 16.7932 6.17083 16.7932 6.00181C16.7932 6.00166 16.7932 6.00197 16.7932 6.00181C16.7934 5.85537 16.7376 5.7084 16.6259 5.59665L12.0545 1.02294Z" fill="white"/>
</svg>
