<svg width="17" height="12" viewBox="0 0 17 12" fill="none" xmlns="http://www.w3.org/2000/svg">
<path d="M11.9163 1.02288C11.6932 0.799664 11.3314 0.799573 11.1082 1.02267C10.885 1.24578 10.8849 1.60758 11.108 1.8308L14.7057 5.43032H1.22646C0.910867 5.43032 0.655029 5.68616 0.655029 6.00175C0.655029 6.31734 0.910867 6.57318 1.22646 6.57318H14.7031L11.1081 10.1691C10.8849 10.3923 10.885 10.7541 11.1082 10.9772C11.3313 11.2004 11.6932 11.2003 11.9163 10.9771L16.465 6.42727C16.5817 6.32265 16.655 6.17077 16.655 6.00175C16.655 6.0016 16.655 6.00191 16.655 6.00175C16.6552 5.85531 16.5995 5.70834 16.4878 5.59659L11.9163 1.02288Z" fill="white"/>
</svg>
