<svg width="18" height="12" viewBox="0 0 18 12" fill="none" xmlns="http://www.w3.org/2000/svg">
<path d="M12.669 0.400804C12.418 0.14969 12.0109 0.149589 11.7598 0.400577C11.5087 0.651566 11.5086 1.0586 11.7596 1.30971L15.807 5.35918H0.642857C0.287817 5.35918 0 5.647 0 6.00204C0 6.35708 0.287817 6.6449 0.642857 6.6449H15.8041L11.7597 10.6903C11.5086 10.9414 11.5087 11.3484 11.7598 11.5995C12.0109 11.8505 12.4179 11.8504 12.6689 11.5993L17.7862 6.48074C17.9174 6.36305 18 6.19218 18 6.00204C18 6.00186 18 6.00222 18 6.00204C18.0002 5.8373 17.9375 5.67196 17.8118 5.54623L12.669 0.400804Z" fill="#D20129"/>
</svg>
