<svg width="20" height="21" viewBox="0 0 20 21" fill="none" xmlns="http://www.w3.org/2000/svg">
<path d="M8.82353 9.91177C8.49866 9.91177 8.23529 10.1751 8.23529 10.5C8.23529 10.8249 8.49866 11.0882 8.82353 11.0882H9.41177V14.6176H8.82353C8.49866 14.6176 8.23529 14.881 8.23529 15.2059C8.23529 15.5308 8.49866 15.7941 8.82353 15.7941H11.1765C11.5013 15.7941 11.7647 15.5308 11.7647 15.2059C11.7647 14.881 11.5013 14.6176 11.1765 14.6176H10.5882V10.5C10.5882 10.1751 10.3249 9.91177 10 9.91177H8.82353Z" fill="#888E9B"/>
<path d="M11.1765 6.97059C11.1765 7.62034 10.6497 8.14706 10 8.14706C9.35025 8.14706 8.82353 7.62034 8.82353 6.97059C8.82353 6.32084 9.35025 5.79412 10 5.79412C10.6497 5.79412 11.1765 6.32084 11.1765 6.97059Z" fill="#888E9B"/>
<path fill-rule="evenodd" clip-rule="evenodd" d="M10 0.5C4.47715 0.5 0 4.97715 0 10.5C0 16.0228 4.47715 20.5 10 20.5C15.5228 20.5 20 16.0228 20 10.5C20 4.97715 15.5228 0.5 10 0.5ZM1.17647 10.5C1.17647 5.6269 5.1269 1.67647 10 1.67647C14.8731 1.67647 18.8235 5.6269 18.8235 10.5C18.8235 15.3731 14.8731 19.3235 10 19.3235C5.1269 19.3235 1.17647 15.3731 1.17647 10.5Z" fill="#888E9B"/>
</svg>
