<svg width="60" height="43" viewBox="0 0 60 43" fill="none" xmlns="http://www.w3.org/2000/svg">
<g opacity="0.8">
<path fill-rule="evenodd" clip-rule="evenodd" d="M50.4601 0.357209C54.0558 0.567095 55.8227 1.11771 57.45 4.11465C59.1445 7.10783 60.0001 12.263 60 21.3421V21.3731C60 30.4101 59.1444 35.6037 57.4534 38.5657C55.8255 41.5621 54.0599 42.1064 50.4635 42.3582C46.8672 42.5717 37.8334 42.7001 30.0078 42.7001C22.1663 42.7001 13.1287 42.5717 9.53651 42.3539C5.94724 42.102 4.18096 41.5586 2.53903 38.5614C0.862269 35.5996 0 30.4058 0 21.3698V21.3385C0 12.263 0.862269 7.10783 2.53903 4.11465C4.18096 1.11407 5.95139 0.567095 9.53953 0.352926C13.1287 0.104749 22.1663 0 30.0078 0C37.8334 0 46.8672 0.104748 50.4601 0.357209ZM22.5 9.70532V32.9964L41.2495 21.3507L22.5 9.70532Z" fill="#D20129"/>
<path fill-rule="evenodd" clip-rule="evenodd" d="M50.4601 0.357209C54.0558 0.567095 55.8227 1.11771 57.45 4.11465C59.1445 7.10783 60.0001 12.263 60 21.3421V21.3731C60 30.4101 59.1444 35.6037 57.4534 38.5657C55.8255 41.5621 54.0599 42.1064 50.4635 42.3582C46.8672 42.5717 37.8334 42.7001 30.0078 42.7001C22.1663 42.7001 13.1287 42.5717 9.53651 42.3539C5.94724 42.102 4.18096 41.5586 2.53903 38.5614C0.862269 35.5996 0 30.4058 0 21.3698V21.3385C0 12.263 0.862269 7.10783 2.53903 4.11465C4.18096 1.11407 5.95139 0.567095 9.53953 0.352926C13.1287 0.104749 22.1663 0 30.0078 0C37.8334 0 46.8672 0.104748 50.4601 0.357209ZM22.5 9.70532V32.9964L41.2495 21.3507L22.5 9.70532Z" fill="#D20129"/>
<path d="M22.5 9.70532V32.9964L41.2495 21.3507L22.5 9.70532Z" fill="#D20129"/>
<path d="M22.5 9.70532V32.9964L41.2495 21.3507L22.5 9.70532Z" fill="white"/>
</g>
</svg>
