<svg width="23" height="16" viewBox="0 0 23 16" fill="none" xmlns="http://www.w3.org/2000/svg">
<path d="M22.3612 3.57647C22.3612 3.38824 22.0788 1.88235 21.42 1.22353C20.5729 0.282353 19.6318 0.188235 19.1612 0.188235H19.067C16.1494 4.20739e-08 11.82 0 11.7259 0C11.7259 0 7.30234 4.20739e-08 4.3847 0.188235H4.29058C3.81999 0.188235 2.87881 0.282353 2.03176 1.22353C1.37293 1.97647 1.09058 3.48235 1.09058 3.67059C1.09058 3.76471 0.902344 5.45882 0.902344 7.24706V8.84706C0.902344 10.6353 1.09058 12.3294 1.09058 12.4235C1.09058 12.6118 1.37293 14.1176 2.03176 14.7765C2.7847 15.6235 3.72587 15.7176 4.29058 15.8118C4.3847 15.8118 4.47881 15.8118 4.57293 15.8118C6.26705 16 11.4435 16 11.6318 16C11.6318 16 16.0553 16 18.9729 15.8118H19.067C19.5376 15.7176 20.4788 15.6235 21.3259 14.7765C21.9847 14.0235 22.267 12.5176 22.267 12.3294C22.267 12.2353 22.4553 10.5412 22.4553 8.75294V7.15294C22.5494 5.45882 22.3612 3.67059 22.3612 3.57647ZM15.3965 8.18824L9.7494 11.2C9.65528 11.2 9.65528 11.2941 9.56117 11.2941C9.46705 11.2941 9.37293 11.2941 9.37293 11.2C9.27881 11.1059 9.1847 11.0118 9.1847 10.8235V4.70588C9.1847 4.51765 9.27881 4.42353 9.37293 4.32941C9.46705 4.23529 9.65528 4.23529 9.84352 4.32941L15.4906 7.34118C15.6788 7.43529 15.7729 7.52941 15.7729 7.71765C15.7729 7.90588 15.5847 8.09412 15.3965 8.18824Z" fill="#FF0103"/>
</svg>
