<svg width="22" height="16" viewBox="0 0 22 16" fill="none" xmlns="http://www.w3.org/2000/svg">
<path d="M21.4588 3.57647C21.4588 3.38824 21.1765 1.88235 20.5176 1.22353C19.6706 0.282353 18.7294 0.188235 18.2588 0.188235H18.1647C15.2471 4.20739e-08 10.9176 0 10.8235 0C10.8235 0 6.4 4.20739e-08 3.48235 0.188235H3.38824C2.91765 0.188235 1.97647 0.282353 1.12941 1.22353C0.470588 1.97647 0.188235 3.48235 0.188235 3.67059C0.188235 3.76471 0 5.45882 0 7.24706V8.84706C0 10.6353 0.188235 12.3294 0.188235 12.4235C0.188235 12.6118 0.470588 14.1176 1.12941 14.7765C1.88235 15.6235 2.82353 15.7176 3.38824 15.8118C3.48235 15.8118 3.57647 15.8118 3.67059 15.8118C5.36471 16 10.5412 16 10.7294 16C10.7294 16 15.1529 16 18.0706 15.8118H18.1647C18.6353 15.7176 19.5765 15.6235 20.4235 14.7765C21.0824 14.0235 21.3647 12.5176 21.3647 12.3294C21.3647 12.2353 21.5529 10.5412 21.5529 8.75294V7.15294C21.6471 5.45882 21.4588 3.67059 21.4588 3.57647ZM14.4941 8.18824L8.84706 11.2C8.75294 11.2 8.75294 11.2941 8.65882 11.2941C8.5647 11.2941 8.47059 11.2941 8.47059 11.2C8.37647 11.1059 8.28235 11.0118 8.28235 10.8235V4.70588C8.28235 4.51765 8.37647 4.42353 8.47059 4.32941C8.56471 4.23529 8.75294 4.23529 8.94118 4.32941L14.5882 7.34118C14.7765 7.43529 14.8706 7.52941 14.8706 7.71765C14.8706 7.90588 14.6824 8.09412 14.4941 8.18824Z" fill="#D4D8E9"/>
</svg>
